<svg width="33" height="33" viewBox="0 0 33 33" fill="none" xmlns="http://www.w3.org/2000/svg">
<g clip-path="url(#clip0_51_30)">
<path d="M26.3174 17.7925C26.3724 17.38 26.3999 16.9538 26.3999 16.5C26.3999 16.06 26.3724 15.62 26.3037 15.2075L29.0949 13.035C29.3424 12.8425 29.4112 12.4713 29.2599 12.1963L26.6199 7.6313C26.4549 7.3288 26.1112 7.23255 25.8087 7.3288L22.5224 8.6488C21.8349 8.1263 21.1062 7.6863 20.2949 7.3563L19.7999 3.8638C19.7449 3.5338 19.4699 3.30005 19.1399 3.30005H13.8599C13.5299 3.30005 13.2687 3.5338 13.2137 3.8638L12.7187 7.3563C11.9074 7.6863 11.1649 8.14005 10.4912 8.6488L7.20491 7.3288C6.90241 7.2188 6.55866 7.3288 6.39366 7.6313L3.76741 12.1963C3.60241 12.485 3.65741 12.8425 3.93241 13.035L6.72366 15.2075C6.65491 15.62 6.59991 16.0738 6.59991 16.5C6.59991 16.9263 6.62741 17.38 6.69616 17.7925L3.90491 19.965C3.65741 20.1575 3.58866 20.5288 3.73991 20.8038L6.37991 25.3688C6.54491 25.6713 6.88866 25.7675 7.19116 25.6713L10.4774 24.3513C11.1649 24.8738 11.8937 25.3138 12.7049 25.6438L13.1999 29.1363C13.2687 29.4663 13.5299 29.7 13.8599 29.7H19.1399C19.4699 29.7 19.7449 29.4663 19.7862 29.1363L20.2812 25.6438C21.0924 25.3138 21.8349 24.8738 22.5087 24.3513L25.7949 25.6713C26.0974 25.7813 26.4412 25.6713 26.6062 25.3688L29.2462 20.8038C29.4112 20.5013 29.3424 20.1575 29.0812 19.965L26.3174 17.7925ZM16.4999 21.45C13.7774 21.45 11.5499 19.2225 11.5499 16.5C11.5499 13.7775 13.7774 11.55 16.4999 11.55C19.2224 11.55 21.4499 13.7775 21.4499 16.5C21.4499 19.2225 19.2224 21.45 16.4999 21.45Z" fill="#4DA86A"/>
</g>
<defs>
<clipPath id="clip0_51_30">
<rect width="33" height="33" fill="white"/>
</clipPath>
</defs>
</svg>
